<svg width="603" height="473" viewBox="0 0 603 473" fill="none" xmlns="http://www.w3.org/2000/svg">
<path d="M595.923 73.0206C599.672 73.0206 602.737 76.0717 602.737 79.8325C602.737 83.5809 599.685 86.6444 595.923 86.6444C592.174 86.6444 589.109 83.5934 589.109 79.8325C589.122 76.0717 592.174 73.0206 595.923 73.0206ZM595.923 75.1626C593.345 75.1626 591.252 77.2547 591.252 79.8325C591.252 82.4103 593.345 84.5024 595.923 84.5024C598.501 84.5024 600.594 82.4103 600.594 79.8325C600.594 77.2547 598.501 75.1626 595.923 75.1626Z" fill="#8380F9"/>
<path d="M588.997 38.426C592.747 38.426 595.811 41.477 595.811 45.2379C595.811 48.9863 592.759 52.0498 588.997 52.0498C585.248 52.0498 582.184 48.9988 582.184 45.2379C582.196 41.477 585.248 38.426 588.997 38.426ZM588.997 40.5555C586.419 40.5555 584.326 42.6476 584.326 45.2255C584.326 47.8033 586.419 49.8954 588.997 49.8954C591.576 49.8954 593.668 47.8033 593.668 45.2255C593.668 42.6601 591.576 40.5555 588.997 40.5555Z" fill="#5446CF"/>
<path d="M568.297 28.8375C568.297 29.4229 568.77 29.9087 569.368 29.9087H574.077C574.662 29.9087 575.148 29.4354 575.148 28.8375C575.148 28.252 574.675 27.7662 574.077 27.7662H569.368C568.77 27.7662 568.297 28.252 568.297 28.8375Z" fill="#6C5EF1"/>
<path d="M560.051 28.8376C560.051 29.4231 560.524 29.9089 561.122 29.9089H565.831C566.416 29.9089 566.902 29.4355 566.902 28.8376C566.902 28.2522 566.428 27.7664 565.831 27.7664H561.122C560.524 27.7664 560.051 28.2522 560.051 28.8376Z" fill="#6C5EF1"/>
<path d="M566.527 22.2244V26.4585C566.527 27.0438 567.001 27.5295 567.599 27.5295C568.184 27.5295 568.67 27.0562 568.67 26.4585V22.2244C568.67 21.6391 568.196 21.1534 567.599 21.1534C567.001 21.1659 566.527 21.6391 566.527 22.2244Z" fill="#6C5EF1"/>
<path d="M566.527 31.2157V35.4498C566.527 36.0351 567.001 36.5208 567.599 36.5208C568.184 36.5208 568.67 36.0476 568.67 35.4498V31.2157C568.67 30.6305 568.196 30.1448 567.599 30.1448C567.001 30.1572 566.527 30.6305 566.527 31.2157Z" fill="#6C5EF1"/>
<path d="M575.969 65.2009C575.969 65.7863 576.442 66.2721 577.04 66.2721H581.749C582.334 66.2721 582.82 65.7988 582.82 65.2009C582.82 64.6154 582.346 64.1296 581.749 64.1296H577.04C576.455 64.1296 575.969 64.603 575.969 65.2009Z" fill="#5446CF"/>
<path d="M567.723 65.2009C567.723 65.7863 568.196 66.2721 568.794 66.2721H573.502C574.088 66.2721 574.574 65.7988 574.574 65.2009C574.574 64.6154 574.1 64.1296 573.502 64.1296H568.794C568.208 64.1296 567.723 64.603 567.723 65.2009Z" fill="#5446CF"/>
<path d="M574.203 58.5878V62.8219C574.203 63.4072 574.676 63.8929 575.274 63.8929C575.86 63.8929 576.346 63.4197 576.346 62.8219V58.5878C576.346 58.0025 575.872 57.5168 575.274 57.5168C574.689 57.5168 574.203 58.0025 574.203 58.5878Z" fill="#5446CF"/>
<path d="M574.203 67.5794V71.8135C574.203 72.3988 574.676 72.8844 575.274 72.8844C575.86 72.8844 576.346 72.4112 576.346 71.8135V67.5794C576.346 66.9941 575.872 66.5084 575.274 66.5084C574.689 66.5084 574.203 66.9816 574.203 67.5794Z" fill="#5446CF"/>
<path d="M540.386 147.461C538.36 148.013 536.456 148.842 534.737 149.931L527.446 143.701L521.337 150.837L528.06 156.576C526.648 158.816 525.65 161.302 525.159 163.972L516.609 164.648L517.346 174.008L525.527 173.364C526.172 175.773 527.247 177.998 528.643 179.962L523.471 186.009L530.608 192.101L535.612 186.254C538.037 187.62 540.769 188.51 543.64 188.817L544.284 196.996L553.648 196.259L552.972 187.712C554.799 187.067 556.503 186.177 558.038 185.088L564.929 190.98L571.023 183.845L564.331 178.121C565.697 175.696 566.572 172.965 566.894 170.095L575.075 169.451L574.339 160.09L565.789 160.765C565.006 158.571 563.901 156.545 562.504 154.765L568.23 148.074L561.092 141.967L555.198 148.857C553.494 148.028 551.683 147.415 549.78 147.046L549.104 138.499L539.741 139.235L540.386 147.461ZM554.492 167.164C554.86 171.891 551.314 176.049 546.587 176.418C541.859 176.786 537.7 173.241 537.331 168.515C536.963 163.788 540.508 159.63 545.236 159.261C549.964 158.878 554.123 162.438 554.492 167.164Z" fill="#CCCCFF"/>
<path d="M545.556 153.338C537.544 153.338 531.066 159.829 531.066 167.824C531.066 175.819 537.559 182.31 545.556 182.31C553.553 182.31 560.046 175.819 560.046 167.824C560.046 159.829 553.553 153.338 545.556 153.338ZM554.49 167.164C554.858 171.891 551.312 176.049 546.585 176.418C541.857 176.786 537.697 173.241 537.329 168.515C536.961 163.788 540.506 159.63 545.234 159.261C549.962 158.878 554.121 162.438 554.49 167.164Z" fill="#B6B6EF"/>
<path d="M404.597 434.454H392.027V434.887H404.597V434.454Z" fill="#EBEBEB"/>
<path opacity="0.61" d="M287.139 472.441C441.855 472.441 567.277 465.134 567.277 456.119C567.277 447.105 441.855 439.798 287.139 439.798C132.422 439.798 7 447.105 7 456.119C7 465.134 132.422 472.441 287.139 472.441Z" fill="#AEAECC"/>
<path d="M406.33 420.01C406.33 420.01 399.106 404.41 407.341 388.955C415.576 373.5 417.888 369.889 412.687 366.856C407.486 363.679 405.03 379.134 405.03 379.134C405.03 379.134 400.695 368.445 404.307 357.323C407.919 346.201 410.231 328.002 405.319 326.124C400.406 324.247 404.307 348.801 400.118 357.179C400.118 357.179 396.506 347.79 395.928 338.98C395.35 330.024 396.217 315.725 392.316 312.114C388.415 308.503 385.959 310.958 389.715 330.747C393.616 350.535 393.472 366.567 393.472 366.567C393.472 366.567 384.948 340.713 379.313 339.991C373.678 339.268 373.678 347.646 378.446 354.868C383.358 362.09 392.749 375.234 394.338 381.878C394.338 381.878 384.948 362.379 376.568 368.301C368.188 374.223 383.936 386.067 390.871 390.255C397.806 394.444 402.718 421.165 402.718 421.165L406.33 420.01Z" fill="#407BFF"/>
<path d="M406.33 420.01C406.33 420.01 399.106 404.41 407.341 388.955C415.576 373.5 417.888 369.889 412.687 366.856C407.486 363.679 405.03 379.134 405.03 379.134C405.03 379.134 400.695 368.445 404.307 357.323C407.919 346.201 410.231 328.002 405.319 326.124C400.406 324.247 404.307 348.801 400.118 357.179C400.118 357.179 396.506 347.79 395.928 338.98C395.35 330.024 396.217 315.725 392.316 312.114C388.415 308.503 385.959 310.958 389.715 330.747C393.616 350.535 393.472 366.567 393.472 366.567C393.472 366.567 384.948 340.713 379.313 339.991C373.678 339.268 373.678 347.646 378.446 354.868C383.358 362.09 392.749 375.234 394.338 381.878C394.338 381.878 384.948 362.379 376.568 368.301C368.188 374.223 383.936 386.067 390.871 390.255C397.806 394.444 402.718 421.165 402.718 421.165L406.33 420.01Z" fill="#5446CF"/>
<path d="M400.696 426.365C400.696 426.365 407.63 410.621 399.251 395.455C390.871 380.289 388.415 376.534 393.616 373.356C398.817 370.178 401.418 385.489 401.418 385.489C401.418 385.489 405.752 374.8 401.851 363.679C398.095 352.557 395.639 334.502 400.551 332.48C405.463 330.458 401.707 355.012 406.186 363.39C406.186 363.39 409.653 354.001 410.231 345.046C410.664 336.091 409.653 321.791 413.554 318.18C417.455 314.425 419.911 317.025 416.299 336.813C412.687 356.601 412.976 372.634 412.976 372.634C412.976 372.634 421.211 346.635 426.846 345.768C432.48 344.902 432.625 353.279 427.857 360.645C423.089 368.012 413.843 381.156 412.398 387.944C412.398 387.944 421.5 368.301 429.88 374.223C438.404 380 422.8 392.133 415.866 396.466C408.931 400.799 404.452 427.521 404.452 427.521L400.696 426.365Z" fill="#6C5EF1"/>
<path d="M432.771 415.243H375.27L379.893 456.409H428.148L432.771 415.243Z" fill="#8380F9"/>
<path d="M534.046 277.882H229.924C227.902 277.882 226.312 276.293 226.312 274.271V4.16981C226.312 2.14767 227.902 0.558838 229.924 0.558838H534.191C536.213 0.558838 537.802 2.14767 537.802 4.16981V274.271C537.658 276.293 536.069 277.882 534.046 277.882Z" fill="#8380F9"/>
<path d="M226.312 25.2579V274.271C226.312 276.293 227.613 277.882 229.347 277.882H534.769C536.358 277.882 537.802 276.293 537.802 274.271V25.2579H226.312Z" fill="#2A3554"/>
<path d="M534.048 39.9908H230.07V259.971H534.048V39.9908Z" fill="white"/>
<path d="M524.62 16.5327C526.676 16.5327 528.342 14.5544 528.342 12.1141C528.342 9.67381 526.676 7.69556 524.62 7.69556C522.565 7.69556 520.898 9.67381 520.898 12.1141C520.898 14.5544 522.565 16.5327 524.62 16.5327Z" fill="#4A4298"/>
<path d="M512.523 16.5327C514.578 16.5327 516.244 14.5544 516.244 12.1141C516.244 9.67381 514.578 7.69556 512.523 7.69556C510.467 7.69556 508.801 9.67381 508.801 12.1141C508.801 14.5544 510.467 16.5327 512.523 16.5327Z" fill="#4A4298"/>
<path d="M504.147 12.1141C504.147 14.5559 502.519 16.5327 500.425 16.5327C498.448 16.5327 496.703 14.5559 496.703 12.1141C496.703 9.67228 498.331 7.69556 500.425 7.69556C502.519 7.69556 504.147 9.67228 504.147 12.1141Z" fill="#4A4298"/>
<path d="M238.74 267.482H203.777V266.182H211.724C212.879 266.182 213.746 265.316 213.891 264.305L217.358 243.216L218.08 239.028H230.072L240.763 264.305C241.486 265.749 240.33 267.482 238.74 267.482Z" fill="#407BFF"/>
<path opacity="0.4" d="M238.74 267.482H203.777V266.182H211.724C212.879 266.182 213.746 265.316 213.891 264.305L217.358 243.216L218.08 239.028H230.072L240.763 264.305C241.486 265.749 240.33 267.482 238.74 267.482Z" fill="white"/>
<path opacity="0.2" d="M238.74 266.038H211.578C212.734 266.038 213.601 265.171 213.745 264.16L217.213 243.072H229.782L239.318 264.882C239.751 265.46 239.318 266.038 238.74 266.038Z" fill="black"/>
<path d="M257.52 246.827H187.449C186.727 246.827 186.293 246.25 186.438 245.527L196.407 192.952C196.551 192.229 197.274 191.652 197.851 191.652H267.922C268.645 191.652 269.078 192.229 268.934 192.952L258.965 245.527C258.965 246.25 258.242 246.827 257.52 246.827Z" fill="#407BFF"/>
<path opacity="0.4" d="M257.52 246.827H187.449C186.727 246.827 186.293 246.25 186.438 245.527L196.407 192.952C196.551 192.229 197.274 191.652 197.851 191.652H267.922C268.645 191.652 269.078 192.229 268.934 192.952L258.965 245.527C258.965 246.25 258.242 246.827 257.52 246.827Z" fill="white"/>
<path d="M256.075 246.827H186.004C185.281 246.827 184.848 246.25 184.993 245.527L194.961 192.952C195.106 192.229 195.828 191.652 196.406 191.652H266.477C267.199 191.652 267.633 192.229 267.488 192.952L257.519 245.527C257.519 246.25 256.797 246.827 256.075 246.827Z" fill="#263238"/>
<path d="M255.209 243.506H188.172L197.418 194.83H264.455L255.209 243.506Z" fill="#6C5EF1"/>
<path d="M138.473 267.482V265.893L165.49 260.405H218.223C220.246 260.405 221.835 261.994 221.835 264.016C221.835 266.038 220.246 267.627 218.223 267.627L138.473 267.482Z" fill="#407BFF"/>
<path opacity="0.4" d="M221.691 263.871C221.691 264.882 221.257 265.749 220.679 266.327C220.102 266.904 219.09 267.338 218.223 267.338H138.473V265.749L165.49 260.26H218.223C220.102 260.405 221.691 261.994 221.691 263.871Z" fill="white"/>
<path opacity="0.4" d="M221.69 263.871C221.69 264.882 221.256 265.749 220.678 266.327C220.1 266.905 219.089 267.338 218.222 267.338H186.148V265.749L213.165 260.26H218.222C220.1 260.405 221.69 261.994 221.69 263.871Z" fill="white"/>
<path d="M241.051 456.408H248.13L261.133 275.86H251.598L241.051 456.408Z" fill="#263238"/>
<path opacity="0.1" d="M240.906 456.408H248.13L260.555 284.815L261.133 276.148H251.597L251.02 284.815L240.906 456.408Z" fill="white"/>
<path opacity="0.2" d="M251.02 284.381H260.555L261.133 276.148H251.597L251.02 284.381Z" fill="black"/>
<path d="M188.027 456.408H195.251L196.406 275.86H186.871L188.027 456.408Z" fill="#263238"/>
<path opacity="0.1" d="M186.871 276.149L187.016 305.325L188.027 456.408H195.251L196.262 305.325L196.406 276.149H186.871Z" fill="white"/>
<path opacity="0.2" d="M186.871 276.149L187.016 305.614H196.262L196.406 276.149H186.871Z" fill="black"/>
<path d="M111.457 456.408H118.681L131.539 275.86H122.004L111.457 456.408Z" fill="#263238"/>
<path opacity="0.1" d="M111.457 456.408H118.681L130.961 284.815L131.539 276.148H122.004L121.57 284.815L111.457 456.408Z" fill="white"/>
<path opacity="0.2" d="M121.57 284.382H130.961L131.539 276.148H122.004L121.57 284.382Z" fill="black"/>
<path d="M323.546 456.408H330.77L320.078 275.86H310.543L323.546 456.408Z" fill="#263238"/>
<path opacity="0.1" d="M310.543 276.149L311.265 284.815L323.546 456.408H330.77L320.656 284.815L320.078 276.149H310.543Z" fill="white"/>
<path opacity="0.2" d="M320.078 276.149H310.543L311.265 284.382H320.656L320.078 276.149Z" fill="black"/>
<path d="M117.522 280.482H324.556C326.29 280.482 327.735 279.037 327.735 277.304V271.382H114.488V277.304C114.488 279.037 115.789 280.482 117.522 280.482Z" fill="#407BFF"/>
<path opacity="0.4" d="M117.522 280.482H324.556C326.29 280.482 327.735 279.037 327.735 277.304V271.382H114.488V277.304C114.488 279.037 115.789 280.482 117.522 280.482Z" fill="white"/>
<path opacity="0.2" d="M114.414 275.882H327.66V271.404H114.414V275.882Z" fill="black"/>
<path d="M110.011 272.537H332.215C333.659 272.537 334.815 271.382 334.815 269.938C334.815 268.493 333.659 267.338 332.215 267.338H110.011C108.566 267.338 107.41 268.493 107.41 269.938C107.41 271.382 108.566 272.537 110.011 272.537Z" fill="#407BFF"/>
<path opacity="0.4" d="M110.011 272.537H332.215C333.659 272.537 334.815 271.382 334.815 269.938C334.815 268.493 333.659 267.338 332.215 267.338H110.011C108.566 267.338 107.41 268.493 107.41 269.938C107.41 271.382 108.566 272.537 110.011 272.537Z" fill="white"/>
<path opacity="0.3" d="M201.175 222.128C200.597 222.128 199.874 221.839 199.585 221.406C199.152 220.973 199.007 220.251 199.152 219.673L200.019 215.051C200.308 213.751 201.463 212.884 202.764 212.884H240.327C240.905 212.884 241.628 213.173 241.917 213.606C242.35 214.04 242.495 214.762 242.35 215.34L241.483 219.962C241.194 221.262 240.039 222.128 238.738 222.128H201.175Z" fill="white"/>
<path d="M238.738 221.406H201.174C200.307 221.406 199.585 220.54 199.729 219.673L200.596 215.051C200.741 214.04 201.608 213.462 202.619 213.462H240.183C241.05 213.462 241.772 214.329 241.627 215.195L240.761 219.817C240.472 220.684 239.749 221.406 238.738 221.406Z" fill="white"/>
<path d="M207.454 218.503C208.186 217.457 208.09 216.127 207.24 215.533C206.39 214.939 205.108 215.305 204.376 216.351C203.644 217.397 203.74 218.727 204.59 219.322C205.44 219.916 206.723 219.55 207.454 218.503Z" fill="#263238"/>
<path d="M213.887 217.362C213.599 218.518 212.587 219.529 211.431 219.529C210.276 219.529 209.698 218.518 209.842 217.362C210.131 216.207 211.142 215.196 212.298 215.196C213.454 215.196 214.032 216.207 213.887 217.362Z" fill="#263238"/>
<path d="M219.665 217.362C219.376 218.518 218.365 219.529 217.209 219.529C216.053 219.529 215.475 218.518 215.619 217.362C215.908 216.207 216.92 215.196 218.076 215.196C219.231 215.196 219.954 216.207 219.665 217.362Z" fill="#263238"/>
<path d="M225.075 218.495C225.807 217.449 225.711 216.119 224.861 215.525C224.011 214.931 222.729 215.297 221.997 216.343C221.265 217.389 221.361 218.719 222.211 219.313C223.061 219.908 224.344 219.542 225.075 218.495Z" fill="#263238"/>
<path d="M231.512 217.362C231.224 218.518 230.212 219.529 229.056 219.529C227.901 219.529 227.323 218.518 227.467 217.362C227.756 216.207 228.767 215.196 229.923 215.196C230.935 215.196 231.657 216.207 231.512 217.362Z" fill="#263238"/>
<path d="M236.88 218.411C237.612 217.365 237.516 216.035 236.666 215.441C235.816 214.846 234.533 215.213 233.802 216.259C233.07 217.305 233.166 218.635 234.016 219.229C234.866 219.823 236.148 219.457 236.88 218.411Z" fill="#263238"/>
<path opacity="0.3" d="M243.939 222.128C243.361 222.128 242.928 221.984 242.639 221.551C242.35 221.117 242.205 220.684 242.35 220.106L243.505 214.329C243.65 213.318 244.661 212.595 245.528 212.595H251.307C251.885 212.595 252.318 212.74 252.607 213.173C252.896 213.606 253.041 214.04 252.896 214.618L251.741 220.395C251.596 221.406 250.585 222.128 249.718 222.128H243.939Z" fill="white"/>
<path d="M243.938 221.406H249.717C250.295 221.406 250.873 220.973 251.017 220.251L252.173 214.473C252.317 213.896 251.884 213.318 251.306 213.318H245.527C244.949 213.318 244.371 213.751 244.227 214.473L243.071 220.251C242.926 220.973 243.36 221.406 243.938 221.406Z" fill="#263238"/>
<path d="M246.974 219.962C246.829 219.962 246.829 219.962 246.685 219.818C246.54 219.673 246.685 219.385 246.829 219.24L249.141 217.362L247.552 215.485C247.407 215.34 247.552 215.051 247.696 214.907C247.841 214.763 248.13 214.763 248.274 214.907L250.008 217.074C250.152 217.218 250.008 217.507 249.863 217.651L247.263 219.818C247.118 219.962 246.974 219.962 246.974 219.962Z" fill="#6C5EF1"/>
<path d="M249.573 217.795H245.527C245.383 217.795 245.238 217.651 245.238 217.362C245.238 217.217 245.527 216.929 245.672 216.929H249.573C249.717 216.929 249.862 217.073 249.862 217.362C249.862 217.651 249.717 217.795 249.573 217.795Z" fill="#6C5EF1"/>
<path d="M122.869 129.543H154.076C157.399 129.543 159.999 126.943 159.999 123.621V92.5665C159.999 89.2444 157.399 86.6445 154.076 86.6445H122.869C119.546 86.6445 116.945 89.2444 116.945 92.5665V123.765C116.945 126.943 119.546 129.543 122.869 129.543Z" fill="#8380F9"/>
<path d="M135.148 127.954L138.471 142.398L141.794 127.954H135.148Z" fill="#8380F9"/>
<path opacity="0.3" d="M138.039 121.021C125.325 113.221 125.614 100.077 125.614 99.9329V99.4996L138.472 94.0109L151.331 99.4996V99.9329C151.331 100.077 151.619 113.221 138.906 120.877L138.472 121.165L138.039 121.021Z" fill="white"/>
<path opacity="0.6" d="M138.473 94.8777L150.609 100.077C150.609 100.077 151.042 112.788 138.473 120.443V94.8777Z" fill="white"/>
<path opacity="0.4" d="M138.474 94.8777L126.338 100.077C126.338 100.077 125.904 112.788 138.474 120.443V94.8777Z" fill="white"/>
<path d="M126.77 258.094L136.883 259.538C136.883 259.538 140.35 258.382 143.962 258.094C147.574 257.66 151.764 258.094 151.764 258.094C151.764 258.094 156.387 259.827 156.387 264.16C156.387 264.16 145.696 267.049 141.651 265.315L126.914 264.16V258.094H126.77Z" fill="#E4897B"/>
<path opacity="0.2" d="M126.77 258.094L136.883 259.538C136.883 259.538 140.35 258.382 143.962 258.094C147.574 257.66 151.764 258.094 151.764 258.094C151.764 258.094 156.387 259.827 156.387 264.16C156.387 264.16 145.696 267.049 141.651 265.315L126.914 264.16V258.094H126.77Z" fill="#F5AB86"/>
<path d="M151.909 189.774C151.909 189.774 152.198 193.385 153.065 195.84C153.065 195.84 151.476 196.996 149.598 195.84L151.909 189.774Z" fill="#F88265"/>
<path d="M155.808 186.886C155.374 187.753 154.797 188.476 154.219 188.187C153.785 188.042 153.641 187.031 154.074 186.164C154.508 185.297 155.086 184.575 155.663 184.864C156.097 185.008 156.241 185.875 155.808 186.886Z" fill="#2A3554"/>
<path d="M158.267 183.13C158.267 183.13 155.233 181.252 152.633 182.697" stroke="#2A3554" stroke-width="1.04702" stroke-miterlimit="10" stroke-linecap="round" stroke-linejoin="round"/>
<path d="M149.021 197.574C148.732 198.007 148.299 198.44 148.01 198.729C145.843 200.896 143.242 202.34 140.497 202.918C139.775 203.062 139.052 203.207 138.33 203.207C134.429 203.351 130.528 202.051 127.928 199.018C126.772 197.862 125.905 196.274 125.183 194.54C122.582 187.607 125.183 182.119 128.939 172.586C129.662 170.564 130.962 168.686 132.551 167.097C138.186 161.753 147.143 162.042 152.489 167.819C160.001 175.619 154.945 190.063 149.021 197.574Z" fill="#F5AB86"/>
<path opacity="0.2" d="M140.495 202.918C139.773 203.062 139.05 203.207 138.328 203.207C134.427 203.351 130.526 202.051 127.926 199.018C129.371 197.574 131.104 196.562 131.104 196.562C131.104 196.562 137.028 198.296 140.495 202.918Z" fill="black"/>
<path d="M109.434 203.207C110.445 209.995 125.181 212.451 125.181 212.451C125.181 212.451 132.55 215.773 132.839 212.884C129.805 209.418 129.516 206.384 130.527 203.64C131.105 202.051 132.261 200.607 133.561 199.307C134.283 198.585 135.006 198.007 135.728 197.285L131.249 178.796C127.782 186.018 116.657 202.196 109.434 203.207Z" fill="#F5AB86"/>
<path d="M151.623 162.475C151.623 162.475 154.801 162.042 157.257 167.964C159.28 172.875 154.512 174.03 154.657 179.23C154.801 184.574 150.033 187.463 150.033 187.463C150.033 187.463 145.988 190.929 142.521 189.052C142.521 189.052 138.042 191.218 136.886 195.118C135.73 199.018 128.651 191.941 122.439 193.096C122.439 193.096 118.249 189.052 118.538 179.519C118.682 173.163 121.572 167.386 121.572 167.386C121.572 167.386 123.45 161.608 130.529 158.431C137.609 155.253 150.322 157.708 151.623 162.475Z" fill="#2A3554"/>
<path d="M141.652 186.307C141.218 188.618 141.796 190.641 142.952 191.94C144.541 193.674 146.997 191.507 148.009 188.618C148.876 186.018 149.164 181.974 146.853 181.396C144.541 180.819 142.085 183.419 141.652 186.307Z" fill="#F5AB86"/>
<path d="M143.241 208.84C141.218 214.617 139.34 220.106 137.75 225.45C136.739 228.772 135.728 231.95 134.861 235.128C134.139 237.728 133.416 240.327 132.838 242.783C132.549 243.938 132.26 245.094 131.971 246.249C130.382 252.605 129.082 258.382 128.071 263.582C125.037 278.748 124.314 287.992 124.314 287.992L67.5352 280.77C69.5578 271.093 71.0026 262.571 73.1697 253.327C74.3255 248.272 75.7703 243.072 77.504 237.294C78.6598 233.25 80.1046 228.772 81.8383 224.006C87.4728 207.684 92.8184 203.207 92.8184 203.207C114.49 199.74 143.241 208.84 143.241 208.84Z" fill="#8380F9"/>
<path d="M162.164 259.105L172.277 260.549C172.277 260.549 175.745 259.393 179.357 259.105C182.969 258.671 187.158 259.105 187.158 259.105C187.158 259.105 191.782 260.838 191.782 265.171C191.782 265.171 181.09 268.06 177.045 266.326L162.309 265.171V259.105H162.164Z" fill="#F5AB86"/>
<path d="M99.4609 445.864L110.008 446.009L115.353 421.598L104.807 421.454L99.4609 445.864Z" fill="#F5AB86"/>
<path opacity="0.2" d="M104.804 421.454L115.35 421.598L112.316 435.609L101.914 434.887L104.804 421.454Z" fill="black"/>
<path d="M133.415 386.211C126.481 412.643 118.101 431.565 118.101 431.565L98.8856 430.12C98.8856 430.12 106.832 399.21 109.721 371.045C111.455 353.568 111.311 339.124 106.254 337.968C103.075 337.246 95.5627 337.246 85.8828 337.535V301.57C112.9 307.058 139.917 317.602 141.939 325.98C144.54 337.824 139.628 362.956 133.415 386.211Z" fill="#2A3554"/>
<path d="M96.7188 430.987L119.69 432.576L123.013 422.61L97.7301 421.454L96.7188 430.987Z" fill="#232B44"/>
<path d="M111.598 445.431H111.887L112.176 445.575C112.176 445.575 112.176 445.575 112.176 445.72C112.176 445.72 112.176 445.72 112.32 445.72C113.187 446.009 114.198 446.153 115.065 446.298C115.787 446.442 116.51 446.298 117.088 445.864C117.521 445.575 117.666 444.998 117.521 444.564C117.521 444.275 117.232 443.987 116.943 443.842C116.221 443.553 115.065 443.987 114.054 444.42C114.776 443.553 115.21 442.687 115.065 441.964C115.065 441.531 114.632 441.242 114.198 441.098C113.765 441.098 113.331 441.098 113.042 441.387C111.887 442.253 111.598 445.287 111.598 445.431ZM112.753 444.853C112.609 444.853 112.609 444.998 112.609 444.998C112.609 443.987 112.898 442.398 113.476 441.82C113.62 441.676 113.765 441.676 114.054 441.676H114.198C114.487 441.676 114.632 441.964 114.632 442.109C114.632 442.687 113.62 444.131 112.753 444.853ZM112.898 445.431C114.198 444.709 115.932 443.987 116.654 444.275C116.799 444.275 116.943 444.42 116.943 444.564C117.088 444.853 116.943 445.142 116.654 445.431C116.221 445.864 114.776 445.864 112.898 445.431Z" fill="#407BFF"/>
<path d="M111.456 444.131L99.6086 443.409C99.1752 443.409 98.8862 443.698 98.7417 444.131L97.5859 453.52C97.5859 454.531 98.3083 455.397 99.3197 455.542C103.509 455.686 105.388 455.686 110.589 455.831C113.767 455.975 120.124 456.697 124.458 456.264C128.793 455.831 128.359 451.497 126.481 451.353C122.002 450.775 115.934 447.453 113.189 444.998C112.611 444.42 112.034 444.275 111.456 444.131Z" fill="#8380F9"/>
<path opacity="0.3" d="M133.415 386.211C126.192 381.589 117.812 376.245 109.577 371.045C111.311 353.568 111.166 339.124 106.109 337.968C102.931 337.246 95.4182 337.246 85.7383 337.535V301.57C112.755 307.058 139.772 317.602 141.795 325.98C144.54 337.824 139.628 362.956 133.415 386.211Z" fill="black"/>
<path d="M161.301 445.864L171.848 446.009L177.049 421.598L166.502 421.454L161.301 445.864Z" fill="#F5AB86"/>
<path d="M122.868 298.103L124.602 284.526L69.412 275.426C69.412 275.426 51.3525 311.103 60.1656 328.724C68.2562 344.757 154.508 335.224 167.8 338.113C181.236 341.001 160.576 430.265 160.576 430.265L179.792 431.709C179.792 431.709 209.554 351.401 203.486 326.124C200.741 315.002 155.375 300.414 122.868 298.103Z" fill="#2A3554"/>
<path d="M158.41 430.987L181.382 432.576L184.849 422.61L159.566 421.454L158.41 430.987Z" fill="#232B44"/>
<path d="M173.438 445.431H173.726L174.015 445.575C174.015 445.575 174.015 445.575 174.015 445.72C174.015 445.72 174.015 445.72 174.16 445.72C175.027 446.009 176.038 446.153 176.905 446.298C177.627 446.442 178.35 446.298 178.928 445.864C179.361 445.575 179.505 444.998 179.361 444.564C179.361 444.275 179.072 443.987 178.783 443.842C178.061 443.553 176.905 443.987 175.894 444.42C176.616 443.553 177.049 442.687 176.905 441.964C176.905 441.531 176.471 441.242 176.038 441.098C175.605 441.098 175.171 441.098 174.882 441.387C173.582 442.253 173.438 445.287 173.438 445.431ZM174.449 444.853C174.304 444.853 174.304 444.998 174.304 444.998C174.304 443.987 174.593 442.398 175.171 441.82C175.316 441.676 175.46 441.676 175.749 441.676H175.894C176.183 441.676 176.327 441.964 176.327 442.109C176.327 442.687 175.46 444.131 174.449 444.853ZM174.738 445.431C176.038 444.709 177.772 443.987 178.494 444.275C178.639 444.275 178.783 444.42 178.783 444.564C178.928 444.853 178.783 445.142 178.494 445.431C177.916 445.864 176.471 445.864 174.738 445.431Z" fill="#407BFF"/>
<path d="M173.147 444.131L161.3 443.409C160.867 443.409 160.578 443.698 160.433 444.131L159.277 453.52C159.277 454.531 160 455.397 161.011 455.542C165.201 455.686 167.079 455.686 172.28 455.831C175.459 455.975 181.816 456.697 186.15 456.264C190.484 455.831 190.051 451.497 188.173 451.353C183.694 450.775 177.626 447.453 174.881 444.998C174.447 444.42 173.725 444.275 173.147 444.131Z" fill="#8380F9"/>
<path d="M120.703 284.67V288.137L124.171 288.57V285.248L120.703 284.67Z" fill="black"/>
<path opacity="0.2" d="M137.75 225.45C136.739 228.772 135.727 231.95 134.86 235.128C134.138 237.728 133.416 240.328 132.838 242.783C131.104 233.106 134.283 221.551 134.283 221.551L137.75 225.45Z" fill="black"/>
<path d="M143.239 208.84C147.863 209.706 149.307 245.527 149.596 249.427C149.741 253.183 172.279 260.693 172.279 260.693V265.893C172.279 265.893 148.296 264.16 142.661 261.849C137.027 259.538 135.727 226.317 135.727 226.317L143.239 208.84Z" fill="#F5AB86"/>
<path d="M143.24 208.84C147.43 210.14 149.597 233.828 149.597 233.828L136.45 239.028L133.271 225.884C133.271 225.884 132.405 223.284 134.138 217.651C136.739 209.418 143.24 208.84 143.24 208.84Z" fill="#8380F9"/>
<path d="M161.443 344.035H34.1602V337.968C34.1602 331.613 39.2168 326.558 45.5738 326.558H149.885C156.242 326.558 161.299 331.613 161.299 337.968V344.035H161.443Z" fill="#6C5EF1"/>
<path d="M79.5273 283.082H149.598C153.21 283.082 155.811 286.404 155.088 290.015L142.519 344.179H139.629L150.321 296.803C151.043 293.337 148.442 290.015 144.83 290.015H80.9721L79.5273 283.082Z" fill="#263238"/>
<path d="M106.111 345.912V391.7C106.111 393.144 104.955 394.3 103.51 394.3H92.2412C90.7964 394.3 89.6406 393.144 89.6406 391.7V345.912H106.111Z" fill="#263238"/>
<path d="M44.129 451.497C44.129 448.753 41.9619 446.586 39.2169 446.586C36.4718 446.586 34.3047 448.753 34.3047 451.497C34.3047 454.242 36.4718 456.408 39.2169 456.408C41.9619 456.408 44.129 454.242 44.129 451.497Z" fill="#263238"/>
<path opacity="0.2" d="M41.67 451.498C41.67 450.198 40.5142 449.042 39.2139 449.042C37.9136 449.042 36.7578 450.198 36.7578 451.498C36.7578 452.798 37.9136 453.953 39.2139 453.953C40.6587 453.953 41.67 452.798 41.67 451.498Z" fill="white"/>
<path d="M161.152 451.497C161.152 448.753 158.985 446.586 156.24 446.586C153.495 446.586 151.328 448.753 151.328 451.497C151.328 454.242 153.495 456.408 156.24 456.408C158.985 456.408 161.152 454.242 161.152 451.497Z" fill="#263238"/>
<path opacity="0.2" d="M158.693 451.498C158.693 450.198 157.538 449.042 156.237 449.042C154.937 449.042 153.781 450.198 153.781 451.498C153.781 452.798 154.937 453.953 156.237 453.953C157.538 453.953 158.693 452.798 158.693 451.498Z" fill="white"/>
<path d="M101.777 430.12V377.833H93.8305V430.12C62.4793 430.987 43.5529 441.82 39.6521 444.275C39.2186 444.564 38.9297 444.998 38.9297 445.575V449.909C38.9297 450.775 39.6521 451.497 40.5189 451.497C41.0968 451.497 41.5303 451.208 41.8192 450.775L43.6974 447.453C43.6974 447.453 65.2243 439.798 93.8305 439.22V447.742C93.8305 448.897 94.6974 449.764 95.8532 449.764H99.8985C101.054 449.764 101.921 448.897 101.921 447.742V439.22C130.527 439.798 152.054 447.453 152.054 447.453L153.932 450.775C154.221 451.208 154.655 451.497 155.233 451.497C156.1 451.497 156.822 450.775 156.822 449.909V445.575C156.822 444.998 156.533 444.564 156.1 444.275C152.199 441.964 133.128 430.987 101.777 430.12Z" fill="#263238"/>
<path d="M100.478 446.586H95.1328V456.264H100.478V446.586Z" fill="#263238"/>
<path opacity="0.2" d="M105.966 345.912H89.4961V364.834H105.966V345.912Z" fill="black"/>
<path d="M164.913 341.29V346.779C164.913 348.368 163.613 349.524 162.168 349.524H33.5849C31.9957 349.524 30.8398 348.224 30.8398 346.779V341.29C30.8398 339.702 32.1401 338.546 33.5849 338.546H162.168C163.613 338.402 164.913 339.702 164.913 341.29Z" fill="#263238"/>
<path d="M105.677 344.035H30.694C30.694 344.035 6.85547 304.459 6.85547 238.883V214.906C6.85547 205.085 14.9461 196.996 24.7705 196.996H56.5552C66.235 196.996 74.1812 204.651 74.4702 214.329C75.4815 248.127 80.3937 321.214 105.677 344.035Z" fill="#263238"/>
<path opacity="0.2" d="M89.2067 344.035H34.1614C31.9943 344.035 30.1161 342.879 29.1048 341.002C23.6147 330.458 6.85547 293.77 6.85547 238.883V214.906C6.85547 205.085 14.8016 196.996 24.7705 196.996H52.2209C61.9008 196.996 69.847 204.651 70.1359 214.329C71.0028 244.516 75.0481 306.047 93.9744 335.08C96.4305 338.98 93.8299 344.035 89.2067 344.035Z" fill="white"/>
<path opacity="0.2" d="M164.909 341.29V346.779C164.909 348.368 163.609 349.524 162.164 349.524H104.518C102.495 349.524 100.762 347.79 100.762 345.768V342.302C100.762 340.279 102.495 338.546 104.518 338.546H162.164C163.609 338.402 164.909 339.702 164.909 341.29Z" fill="black"/>
<path d="M30.6914 194.829L35.4591 188.618C35.4591 188.618 55.8302 189.485 56.2636 196.996C56.8415 204.362 30.6914 194.829 30.6914 194.829Z" fill="#8380F9"/>
<path d="M17.2568 213.462C17.2568 213.462 18.5571 246.538 17.2568 331.902C17.2568 334.791 6.42115 334.646 5.69878 331.902C3.09821 322.224 5.69878 244.516 5.69878 244.516" fill="#407BFF"/>
<path d="M5.98828 332.335L16.9684 332.768V338.257L5.98828 337.679V332.335Z" fill="#8380F9"/>
<path d="M17.2568 213.462C17.2568 213.462 18.5571 246.538 17.2568 331.902C17.2568 334.791 6.42115 334.646 5.69878 331.902C3.09821 322.224 5.69878 244.516 5.69878 244.516" fill="#6C5EF1"/>
<path d="M0.642867 314.57C0.0649635 298.826 -2.10217 226.462 6.9998 202.485C6.9998 202.485 15.5239 191.652 44.2746 191.652C73.0253 191.652 81.6938 212.018 81.6938 212.018C81.6938 212.018 82.9941 245.095 81.6938 330.458C81.6938 333.347 70.8581 333.203 70.1358 330.458C67.5352 320.781 70.1358 243.073 70.1358 243.073L64.3567 313.703C64.2122 314.714 63.3454 315.437 62.3341 315.292C53.2321 313.848 13.2123 308.215 2.66553 315.437C1.79867 316.159 0.642867 315.581 0.642867 314.57Z" fill="#407BFF"/>
<path d="M70.2812 330.891L81.2614 331.324V336.813L70.2812 336.235V330.891Z" fill="#8380F9"/>
<path d="M62.9141 315.436L62.0473 321.213C62.0473 321.213 17.4042 311.536 2.81217 321.791L1.94531 315.436C1.94531 315.436 13.2144 305.181 62.9141 315.436Z" fill="#8380F9"/>
<path d="M0.642867 314.57C0.0649635 298.826 -2.10217 226.462 6.9998 202.485C6.9998 202.485 15.5239 191.652 44.2746 191.652C73.0253 191.652 81.6938 212.018 81.6938 212.018C81.6938 212.018 82.9941 245.095 81.6938 330.458C81.6938 333.347 70.8581 333.203 70.1358 330.458C67.5352 320.781 70.1358 243.073 70.1358 243.073L64.3567 313.703C64.2122 314.714 63.3454 315.437 62.3341 315.292C53.2321 313.848 13.2123 308.215 2.66553 315.437C1.79867 316.159 0.642867 315.581 0.642867 314.57Z" fill="#6C5EF1"/>
<path opacity="0.2" d="M70.1383 243.216C70.1383 243.216 70.7162 220.828 81.6964 212.162C81.6964 212.018 67.9712 217.94 70.1383 243.216Z" fill="black"/>
<path opacity="0.2" d="M37.3419 194.252C37.3419 194.252 24.1947 201.474 22.172 299.836C22.172 299.836 16.393 200.607 37.3419 194.252Z" fill="black"/>
<circle cx="382.056" cy="112.609" r="20.9547" fill="#E3E3FF"/>
<mask id="mask0" mask-type="alpha" maskUnits="userSpaceOnUse" x="361" y="91" width="43" height="43">
<circle cx="382.056" cy="112.609" r="20.9547" fill="#E3E3FF"/>
</mask>
<g mask="url(#mask0)">
<circle cx="382.056" cy="136.318" r="18.5404" fill="#5B65D7"/>
<circle cx="382.056" cy="106.694" r="5.91531" fill="#5B65D7"/>
</g>
<rect x="330.48" y="146.419" width="103.156" height="19.7489" fill="#E3E3FF"/>
<circle cx="370.536" cy="156.293" r="2.71606" fill="#5B65D7"/>
<circle cx="382.06" cy="156.293" r="2.71606" fill="#5B65D7"/>
<circle cx="393.583" cy="156.293" r="2.71606" fill="#5B65D7"/>
<rect x="330.48" y="171.981" width="103.156" height="19.7489" fill="#E3E3FF"/>
<circle cx="370.536" cy="181.856" r="2.71606" fill="#5B65D7"/>
<circle cx="382.06" cy="181.856" r="2.71606" fill="#5B65D7"/>
<circle cx="393.583" cy="181.856" r="2.71606" fill="#5B65D7"/>
</svg>
